<?xml version="1.0" encoding="iso-8859-1"?>
<!-- Generator: Adobe Illustrator 19.0.0, SVG Export Plug-In . SVG Version: 6.00 Build 0)  -->
<svg version="1.1" id="Capa_1" xmlns="http://www.w3.org/2000/svg" xmlns:xlink="http://www.w3.org/1999/xlink" x="0px" y="0px"
	 viewBox="0 0 502.172 502.172" style="enable-background:new 0 0 502.172 502.172;" xml:space="preserve">
<g>
	<g>
		<g>
			<path d="M421.15,162.556l30.928-8.208c-2.976-11.18-6.877-22.092-11.664-32.624l-29.136,13.264
				C415.335,143.885,418.637,153.107,421.15,162.556z"/>
			<path d="M458.158,188.396l-31.856,3.008c0.528,5.536,0.784,11.056,0.784,16.608c0.133,46.704-18.431,91.519-51.552,124.448
				L251.086,456.924L126.638,332.46c-68.731-68.734-68.728-180.171,0.006-248.902c33.005-33.003,77.768-51.545,124.442-51.546
				c38.1-0.117,75.19,12.247,105.6,35.2l19.2-25.6c-91.9-68.925-222.275-50.3-291.2,41.6c-27.003,36.004-41.6,79.795-41.6,124.8
				c-0.153,55.195,21.788,108.155,60.928,147.072l147.072,147.088l147.072-147.088c39.146-38.913,61.088-91.876,60.928-147.072
				C459.086,201.463,458.777,194.924,458.158,188.396z"/>
			<path d="M423.438,91.516c-6.478-9.577-13.746-18.595-21.728-26.96l-23.168,22.08c6.755,7.082,12.909,14.714,18.4,22.816
				L423.438,91.516z"/>
			<path d="M203.086,320.012v-82.944c19.11-6.756,31.916-24.787,32-45.056v-80h-32v80c0,8.837-7.163,16-16,16s-16-7.163-16-16v-80
				h-32v80c0.084,20.269,12.89,38.3,32,45.056v82.944H203.086z"/>
			<path d="M331.086,320.012v-82.944c19.11-6.756,31.916-24.787,32-45.056v-32c0-26.51-21.49-48-48-48c-26.51,0-48,21.49-48,48v32
				c0.084,20.269,12.89,38.3,32,45.056v82.944H331.086z M299.086,160.012c0-8.837,7.163-16,16-16s16,7.163,16,16v32
				c0,8.837-7.163,16-16,16s-16-7.163-16-16V160.012z"/>
		</g>
	</g>
</g>
<g>
</g>
<g>
</g>
<g>
</g>
<g>
</g>
<g>
</g>
<g>
</g>
<g>
</g>
<g>
</g>
<g>
</g>
<g>
</g>
<g>
</g>
<g>
</g>
<g>
</g>
<g>
</g>
<g>
</g>
</svg>
